<?xml version="1.0" encoding="UTF-8" standalone="no"?>
<!DOCTYPE svg PUBLIC "-//W3C//DTD SVG 1.1//EN" "http://www.w3.org/Graphics/SVG/1.1/DTD/svg11.dtd">
<svg width="100%" height="100%" viewBox="0 0 512 512" version="1.1" xmlns="http://www.w3.org/2000/svg" xmlns:xlink="http://www.w3.org/1999/xlink" xml:space="preserve" xmlns:serif="http://www.serif.com/" style="fill-rule:evenodd;clip-rule:evenodd;stroke-linejoin:round;stroke-miterlimit:2;">
    <g transform="matrix(1,0,0,1,13.1319,5.13188)">
        <rect x="29" y="37" width="427.736" height="427.736" style="fill:rgb(0,66,8);"/>
    </g>
    <g transform="matrix(0.879679,-0.120321,0.120321,0.879679,12.1693,64.5387)">
        <rect x="29" y="37" width="427.736" height="427.736" style="fill:rgb(47,112,55);"/>
    </g>
    <g transform="matrix(0.769196,0,0,0.769196,96.9941,64.5334)">
        <path d="M166.034,69.666L141.126,102.6C134.484,97.249 118.155,86.733 92.14,71.05L115.665,41.714C141.311,54.998 158.1,64.315 166.034,69.666ZM153.58,146.604L130.609,180.645C125.074,176.77 107.27,166.53 77.196,149.925L98.783,119.482C129.041,133.689 147.307,142.729 153.58,146.604ZM121.753,303.247L87.159,276.125C107.27,247.896 125.259,218.376 141.126,187.564L171.292,214.409C157.455,241.9 140.942,271.513 121.753,303.247ZM287.806,222.712L221.385,222.712L221.385,257.86L287.806,257.86L287.806,222.712ZM174.89,50.293L336.239,50.293C336.239,57.12 336.146,62.101 335.962,65.238C335.039,97.157 333.656,120.358 331.81,134.842C329.965,149.325 327.106,158.966 323.231,163.763C317.327,170.958 308.84,175.294 297.77,176.77C289.836,178.062 277.105,178.523 259.577,178.154C258.655,163.947 254.596,151.401 247.4,140.515C257.732,141.438 268.065,141.899 278.397,141.899C283.009,141.899 286.423,140.792 288.637,138.578C291.773,134.519 293.895,117.729 295.002,88.209L253.489,88.209C251.828,99.463 249.568,109.426 246.708,118.098C243.848,126.77 239.835,135.395 234.669,143.975C229.503,152.554 222.538,160.303 213.774,167.222C205.01,174.141 194.54,180.276 182.363,185.626L329.596,185.626L329.596,305.461L287.806,305.461L287.806,294.945L221.385,294.945L221.385,306.569L181.532,306.569L181.532,185.903L178.765,187.01C176.551,181.844 173.091,176.078 168.387,169.713C163.682,163.348 159.207,158.32 154.964,154.63C174.152,147.619 187.806,138.716 195.924,127.923C204.042,117.13 209.3,103.891 211.699,88.209L174.89,88.209L174.89,50.293Z" style="fill:white;fill-rule:nonzero;"/>
    </g>
    <g transform="matrix(0.454826,0,0,0.454826,95.2658,288.029)">
        <path d="M94.354,280L94.354,69.112L145.001,69.112L145.001,237.38L226.92,237.38L226.92,280L94.354,280Z" style="fill:white;fill-rule:nonzero;"/>
        <path d="M310.224,192.545L353.397,192.545L348.693,174.556C346.663,167.176 343.803,155.691 340.113,140.1C336.423,124.51 333.748,113.393 332.087,106.751L330.98,106.751C327.29,123.357 321.847,145.958 314.652,174.556L310.224,192.545ZM375.261,280L362.807,231.568L300.537,231.568L288.36,280L236.883,280L302.198,69.112L362.807,69.112L428.398,280L375.261,280Z" style="fill:white;fill-rule:nonzero;"/>
        <path d="M450.262,280L450.262,69.112L523.879,69.112C576.278,69.112 602.477,86.548 602.477,121.419C602.477,131.198 599.986,140.377 595.005,148.956C590.023,157.536 583.381,163.486 575.078,166.807L575.078,168.191C586.333,171.143 595.374,176.816 602.2,185.211C609.027,193.606 612.44,204.446 612.44,217.73C612.44,238.394 604.783,253.939 589.47,264.363C574.156,274.788 554.322,280 529.967,280L450.262,280ZM500.908,152.693L521.941,152.693C542.79,152.693 553.215,144.759 553.215,128.892C553.215,121.511 550.678,116.115 545.604,112.701C540.53,109.288 532.643,107.581 521.941,107.581L500.908,107.581L500.908,152.693ZM500.908,241.254L526.093,241.254C550.816,241.254 563.178,232.214 563.178,214.132C563.178,205.645 560.134,199.51 554.045,195.728C547.956,191.946 538.639,190.055 526.093,190.055L500.908,190.055L500.908,241.254Z" style="fill:white;fill-rule:nonzero;"/>
    </g>
</svg>
